<?xml version="1.0" encoding="UTF-8" standalone="no"?>
<!-- Created with Inkscape (http://www.inkscape.org/) -->

<svg
   xmlns:dc="http://purl.org/dc/elements/1.1/"
   xmlns:cc="http://creativecommons.org/ns#"
   xmlns:rdf="http://www.w3.org/1999/02/22-rdf-syntax-ns#"
   xmlns:svg="http://www.w3.org/2000/svg"
   xmlns="http://www.w3.org/2000/svg"
   xmlns:sodipodi="http://sodipodi.sourceforge.net/DTD/sodipodi-0.dtd"
   xmlns:inkscape="http://www.inkscape.org/namespaces/inkscape"
   width="330"
   height="330"
   viewBox="0 0 87.3125 87.312503"
   version="1.1"
   id="svg4551"
   inkscape:version="0.92.3 (2405546, 2018-03-11)"
   sodipodi:docname="crow.svg">
  <defs
     id="defs4545" />
  <sodipodi:namedview
     id="base"
     pagecolor="#ffffff"
     bordercolor="#666666"
     borderopacity="1.0"
     inkscape:pageopacity="0.0"
     inkscape:pageshadow="2"
     inkscape:zoom="1.979899"
     inkscape:cx="108.3341"
     inkscape:cy="199.44864"
     inkscape:document-units="mm"
     inkscape:current-layer="layer1"
     showgrid="false"
     inkscape:window-width="1920"
     inkscape:window-height="1028"
     inkscape:window-x="-8"
     inkscape:window-y="-8"
     inkscape:window-maximized="1"
     fit-margin-top="0"
     fit-margin-left="0"
     fit-margin-right="0"
     fit-margin-bottom="0"
     units="px" />
  <metadata
     id="metadata4548">
    <rdf:RDF>
      <cc:Work
         rdf:about="">
        <dc:format>image/svg+xml</dc:format>
        <dc:type
           rdf:resource="http://purl.org/dc/dcmitype/StillImage" />
        <dc:title></dc:title>
      </cc:Work>
    </rdf:RDF>
  </metadata>
  <g
     inkscape:label="Layer 1"
     inkscape:groupmode="layer"
     id="layer1"
     transform="translate(-77.169937,-85.887763)">
    <g
       transform="matrix(0.29585441,0,0,0.29585441,63.579161,78.070244)"
       id="g20">
      <path
         inkscape:connector-curvature="0"
         id="path26"
         d="m 94.72,320.46016 c 0,-0.0989 1.51967,-7.04691 3.37705,-15.44 10.12576,-45.75615 13.46329,-60.80108 15.02732,-67.74016 0.95206,-4.224 3.68775,-16.536 6.07929,-27.36 2.39155,-10.824 4.69691,-21.192 5.12302,-23.04 0.42611,-1.848 2.15222,-9.624 3.83581,-17.28 1.68359,-7.656 3.62746,-16.44 4.31973,-19.52 0.69226,-3.08 1.99139,-8.912 2.88695,-12.96 8.31215,-37.571526 8.6409,-39.018074 8.93414,-39.311309 0.43814,-0.438144 0.15587,-2.084521 12.33606,71.951309 3.15308,19.16564 7.73794,46.91256 11.87071,71.84 2.02797,12.232 3.71482,22.51848 3.74857,22.85884 0.0466,0.47037 -2.01159,2.10413 -8.57865,6.80952 -4.752,3.40487 -11.88,8.54129 -15.84,11.41427 -3.96,2.87298 -10.008,7.23766 -13.44,9.6993 -3.432,2.46163 -8.4,6.03625 -11.04,7.94359 -2.64,1.90733 -9.408,6.77396 -15.04,10.81473 -5.632,4.04077 -10.875632,7.83125 -11.652515,8.4233 C 95.329389,320.5833 94.72,320.86384 94.72,320.46016 Z m 107.2,-55.35849 c -8.36,-0.21864 -18.08,-0.41417 -21.6,-0.4345 -3.52,-0.0203 -6.56935,-0.14468 -6.77634,-0.27633 -0.20699,-0.13165 -1.04014,-4.19745 -1.85146,-9.0351 -0.81131,-4.83766 -2.39951,-14.26774 -3.52933,-20.95574 -1.12981,-6.688 -4.87531,-28.936 -8.32331,-49.44 -10.30072,-61.25443 -12.9051,-76.67643 -13.93636,-82.52497 -0.68101,-3.862236 -0.87915,-5.667078 -0.64756,-5.898668 0.18353,-0.183533 0.38729,-0.271296 0.45281,-0.195028 0.0655,0.07627 2.8241,6.258666 6.13019,13.738666 3.30609,7.48 7.7808,17.56 9.9438,22.4 2.16301,4.84 14.22331,31.984 26.80067,60.32 12.57736,28.336 24.91376,56.128 27.41422,61.76 2.50046,5.632 4.61938,10.42 4.70871,10.64 0.12024,0.29611 -0.32438,0.38691 -1.7118,0.3496 -1.03084,-0.0277 -8.71424,-0.22928 -17.07424,-0.44793 z m 19.89239,-0.36378 c -0.17571,-0.32831 -4.09009,-9.08864 -8.69862,-19.46741 -8.45859,-19.04935 -13.51848,-30.4239 -21.98884,-49.43048 -2.54913,-5.72 -5.68362,-12.776 -6.96551,-15.68 -1.2819,-2.904 -6.75976,-15.216 -12.17303,-27.36 -5.41327,-12.144 -11.53072,-25.896 -13.59433,-30.56 -2.06361,-4.664 -5.57003,-12.555 -7.79204,-17.53554 -2.22201,-4.980553 -4.04002,-9.192553 -4.04002,-9.360002 0,-0.42434 1.3654,-0.380874 5.19031,0.165225 1.80933,0.258323 6.52969,0.913994 10.48969,1.457043 15.27914,2.09528 21.0798,2.89465 24.32,3.351454 1.848,0.26053 8.688,1.20065 15.2,2.08914 18.4219,2.5135 20.80076,2.83915 25.76,3.52639 9.85992,1.36637 14.29796,1.96703 15.78665,2.13663 0.85066,0.0969 1.61522,0.35489 1.69902,0.57328 0.0838,0.21839 -0.0802,1.96291 -0.36442,3.87673 -0.5153,3.46967 -3.21831,21.96906 -5.60487,38.35965 -0.69191,4.752 -1.843,12.6 -2.55797,17.44 -0.71497,4.84 -1.57806,10.744 -1.91799,13.12 -0.77271,5.40113 -2.93184,20.15794 -4.00315,27.36 -0.44506,2.992 -1.01162,6.88 -1.25901,8.64 -0.38431,2.73404 -3.54864,24.38687 -5.63513,38.56 -0.34978,2.376 -0.78952,5.4 -0.9772,6.72 -0.18768,1.32 -0.38913,2.44833 -0.44766,2.50741 -0.0585,0.0591 -0.25018,-0.16121 -0.42588,-0.48952 z M 224,262.61144 c 0,-0.0963 1.93231,-13.39304 5.30885,-36.53144 0.6164,-4.224 2.26129,-15.528 3.65531,-25.12 2.9778,-20.48972 5.85201,-40.21967 10.06326,-69.07904 1.67892,-11.50547 3.05258,-21.05747 3.05258,-21.22667 0,-0.89818 0.42432,-0.40751 11.72162,13.55475 l 3.01728,3.72904 -5.26175,19.31096 c -2.89396,10.62103 -5.7171,21.03896 -6.27363,23.15096 -1.17268,4.45022 -5.8028,21.59543 -19.35742,71.68 -5.61317,20.74075 -5.58498,20.64 -5.77504,20.64 -0.0831,0 -0.15106,-0.0489 -0.15106,-0.10856 z M 243.52,107.005 c -0.264,-0.0664 -4.728,-0.69117 -9.92,-1.38835 -8.80449,-1.18227 -27.62019,-3.74611 -49.44,-6.73673 -5.104,-0.699552 -14.104,-1.916442 -20,-2.704198 -12.54868,-1.676612 -15.74068,-2.141709 -15.60817,-2.274221 0.15666,-0.156653 9.18773,-3.058496 39.76817,-12.778208 30.85428,-9.806752 41.76157,-13.280941 44.77556,-14.261901 1.04255,-0.339322 1.9542,-0.558298 2.02589,-0.486611 0.0717,0.07168 1.63231,6.442685 3.46805,14.157776 1.83574,7.715094 3.90054,16.331443 4.58843,19.147443 0.68789,2.816 1.35029,5.66 1.472,6.32 0.22674,1.22949 0.12436,1.32055 -1.12993,1.005 z M 147.86667,92.346723 c 0.0733,-0.0733 6.39733,-4.333929 14.05333,-9.468064 7.656,-5.134131 20.50322,-13.75016 28.54937,-19.146723 8.04615,-5.396566 15.10829,-10.085075 15.69364,-10.418912 l 1.06428,-0.606976 13.74635,5.864941 c 7.5605,3.225715 13.87844,5.978134 14.03987,6.116483 0.16899,0.144832 0.10111,0.316128 -0.16,0.403773 -0.70828,0.237744 -14.44777,4.608531 -25.73351,8.186307 -5.632,1.785443 -13.624,4.329862 -17.76,5.654269 -4.136,1.324403 -10.616,3.386886 -14.4,4.583293 -18.65435,5.898038 -25.55787,8.088476 -26.81118,8.507001 -1.29774,0.433357 -2.57232,0.614653 -2.28215,0.324608 z M 146.56,91.654438 c 0,-0.10206 1.2074,-2.37006 2.68312,-5.04 1.47572,-2.669942 3.37522,-6.150438 4.22112,-7.734438 0.84589,-1.584 2.19449,-4.024979 2.99688,-5.4244 l 1.45888,-2.5444 5.44,-2.159808 c 2.992,-1.187898 12.784,-5.059424 21.76,-8.603392 8.976,-3.543971 17.22289,-6.802115 18.32642,-7.24032 1.10353,-0.438205 2.15975,-0.745622 2.34717,-0.683152 0.29284,0.09762 -58.63491,39.615472 -59.07331,39.615472 -0.0882,0 -0.16028,-0.0835 -0.16028,-0.185562 z m 11.2,-21.81928 c 0,-0.134662 1.19998,-3.842662 2.66662,-8.24 L 163.09324,53.6 l 3.49338,-0.220323 c 1.92136,-0.121181 9.32538,-0.44608 16.45338,-0.722003 7.128,-0.275924 14.616,-0.589693 16.64,-0.697268 2.55164,-0.135616 3.58188,-0.0932 3.36,0.13832 -0.176,0.183652 -4.064,1.805831 -8.64,3.604848 -4.576,1.799018 -14.63231,5.769677 -22.34735,8.823684 -7.71505,3.054009 -14.08705,5.552742 -14.16,5.552742 -0.073,0 -0.13265,-0.110179 -0.13265,-0.244842 z m 77.48852,-8.214822 C 234.89142,60.377152 234.3173,58.352 233.9727,57.12 c -0.34459,-1.232 -1.43342,-4.901923 -2.41962,-8.155382 -0.98619,-3.25346 -1.79308,-6.388202 -1.79308,-6.966096 0,-0.982554 0.0571,-1.037428 0.88,-0.845898 4.90212,1.140944 41.87044,11.700675 42.23344,12.063674 0.42733,0.427334 0.39674,0.533782 -0.27647,0.962032 -0.73268,0.466076 -33.64701,9.287632 -35.68807,9.56496 -1.00446,0.136483 -1.01535,0.12256 -1.66038,-2.122954 z m -6.60186,-0.982429 c -2.98833,-1.472867 -5.47353,-2.798521 -5.52266,-2.945901 -0.0806,-0.241718 4.90417,-15.106841 5.14734,-15.350012 0.0941,-0.09413 5.66032,18.150166 6.14394,20.138006 0.11776,0.484 0.0905,0.870064 -0.0606,0.857923 -0.15108,-0.01213 -2.71969,-1.227149 -5.70803,-2.700016 z M 217.44,55.84375 c -1.76,-0.756403 -10.616,-4.575276 -19.68,-8.48639 -9.064,-3.91111 -17.52936,-7.546451 -18.8119,-8.078531 -1.28255,-0.53208 -2.2879,-1.099434 -2.23412,-1.260784 0.0813,-0.243834 9.04841,-4.577072 17.11703,-8.271558 l 1.991,-0.91165 2.68289,2.942582 c 4.75722,5.217704 8.59101,9.514152 14.76125,16.542581 3.32196,3.784 6.40156,7.274499 6.84356,7.756662 0.442,0.482164 0.74213,0.936445 0.66696,1.009514 C 220.7015,57.159245 219.2,56.600154 217.44,55.84375 Z m 2.24,-1.259043 c -1.232,-1.459229 -4.4,-5.14488 -7.04,-8.190333 -10.96196,-12.64551 -13.91328,-16.10776 -13.81471,-16.206328 0.14723,-0.147229 2.55963,0.837542 13.65471,5.574012 5.368,2.291587 10.876,4.628032 12.24,5.192096 1.364,0.564064 2.48135,1.120131 2.48301,1.235708 0.005,0.369703 -4.87111,14.601386 -5.0811,14.829066 -0.11105,0.12041 -1.20991,-0.974989 -2.44191,-2.434221 z M 163.2,52.16615 c 0,-0.214953 1.83977,-2.284275 4.08838,-4.598489 2.24862,-2.314215 5.1152,-5.279162 6.37019,-6.588775 l 2.2818,-2.381116 2.18982,0.994115 c 2.01861,0.916397 17.12253,7.51864 22.91927,10.018502 1.51074,0.651511 2.32848,1.160685 2.08,1.295133 -0.2252,0.121853 -3.21746,0.316762 -6.64946,0.433136 -3.432,0.116371 -7.896,0.269379 -9.92,0.340019 -2.024,0.07064 -6.344,0.209584 -9.6,0.308768 -3.256,0.09918 -7.684,0.267904 -9.84,0.374935 -2.97982,0.147929 -3.92,0.100864 -3.92,-0.196228 z M 212.04451,34.740374 196.08902,28.32 206.54506,28.2356 c 5.75082,-0.04642 10.63477,0.02558 10.85322,0.16 0.21844,0.134419 2.89326,2.883187 5.94404,6.108373 4.59807,4.860925 5.47083,5.931776 5.10228,6.260375 -0.3611,0.321952 -3.44133,-0.809459 -16.40009,-6.023975 z"
         style="fill:#676767;stroke-width:0.31999999" />
      <path
         inkscape:connector-curvature="0"
         id="path24"
         d="m 94.845606,320.08 c 0.0928,-0.308 1.693533,-7.472 3.557178,-15.92 1.863646,-8.448 4.754396,-21.552 6.423876,-29.12 1.66949,-7.568 3.52802,-15.92 4.13006,-18.56 0.60205,-2.64 1.3993,-6.24 1.77167,-8 0.37237,-1.76 1.38263,-6.296 2.24501,-10.08 0.86239,-3.784 5.24638,-23.512 9.74219,-43.84 4.49581,-20.328 8.74326,-39.48 9.43877,-42.56 0.69552,-3.08 3.65796,-16.4 6.58321,-29.6 2.92526,-13.2 5.43659,-24.123395 5.58075,-24.274211 0.27021,-0.282701 0.69455,1.49064 1.29075,5.394211 0.18816,1.232 1.84201,11.312 3.67523,22.4 1.83321,11.088 4.4889,27.216 5.90153,35.84 1.41263,8.624 2.85744,17.336 3.21068,19.36 0.35324,2.024 1.7176,10.232 3.0319,18.24 6.78163,41.32015 8.58582,52.23079 9.61078,58.11988 0.61645,3.54192 1.11698,6.70992 1.1123,7.04 -0.005,0.36496 -0.78889,1.1571 -2,2.02152 -1.09532,0.78177 -4.00749,2.85992 -6.47149,4.61811 -2.464,1.75819 -10.096,7.25374 -16.96,12.21234 C 121.53592,301.565 94.976278,320.64 94.828608,320.64 c -0.08346,0 -0.07581,-0.252 0.01699,-0.56 z M 198.08,264.92003 c -6.248,-0.1421 -14.39264,-0.35024 -18.09921,-0.46255 l -6.7392,-0.20418 -1.18376,-7.24665 c -0.65106,-3.98566 -2.0368,-12.28665 -3.07943,-18.44665 -1.04262,-6.16 -3.71172,-22 -5.93132,-35.2 -2.21961,-13.2 -5.03175,-29.904 -6.2492,-37.12 -1.21745,-7.216 -3.5203,-20.896 -5.11744,-30.4 -1.59715,-9.504 -3.69062,-21.90671 -4.65217,-27.56157 C 145.22801,97.69113 145.09392,96.64 145.5435,96.64 c 0.14492,0 1.35773,2.484 2.69513,5.52 5.07194,11.5137 10.22674,23.14724 14.56908,32.88 17.46948,39.15544 57.67229,129.85028 57.67229,130.10481 0,0.17813 -8.38302,0.094 -22.4,-0.22478 z m 18.08603,-13.15784 c -3.14468,-7.0852 -7.5784,-17.05819 -9.85272,-22.16219 -2.27433,-5.104 -5.18346,-11.656 -6.46474,-14.56 -3.79683,-8.60545 -8.68379,-19.59153 -11.53004,-25.92 -2.85357,-6.34473 -19.11658,-42.92631 -26.46072,-59.52 -2.4537,-5.544 -5.66284,-12.744 -7.13144,-16 -5.41356,-12.00236 -8.17031,-18.342726 -8.03439,-18.478646 0.0767,-0.07672 2.27441,0.160672 4.88375,0.527529 8.54195,1.200947 16.20056,2.257997 19.78427,2.730643 1.936,0.255338 8.272,1.122775 14.08,1.927644 5.808,0.80487 13.152,1.81703 16.32,2.24925 38.58116,5.26376 42.64316,5.83832 43.04895,6.08911 0.17237,0.10653 0.2388,0.50887 0.14763,0.89408 -0.14222,0.6009 -1.65756,10.86229 -4.00202,27.10039 -0.34304,2.376 -1.27835,8.784 -2.07846,14.24 -0.80011,5.456 -1.94965,13.304 -2.55454,17.44 -0.60488,4.136 -1.75628,11.984 -2.55865,17.44 -0.80238,5.456 -1.73673,11.864 -2.07634,14.24 -0.3396,2.376 -1.2035,8.28 -1.91978,13.12 -0.71628,4.84 -1.87339,12.77493 -2.57137,17.63317 -0.69798,4.85824 -1.69472,11.69824 -2.21498,15.2 -0.52026,3.50176 -1.32953,9.03083 -1.79839,12.28683 -0.46886,3.256 -0.95281,6.02899 -1.07545,6.16219 -0.12264,0.13321 -2.7959,-5.55479 -5.94057,-12.64 z m 8.17944,9.73257 c -0.014,-0.23389 1.13186,-8.36989 2.54637,-18.08 1.41451,-9.71012 3.28194,-22.55076 4.14984,-28.53476 0.86791,-5.984 2.45046,-16.856 3.51678,-24.16 1.06633,-7.304 2.4414,-16.73038 3.05571,-20.94751 1.4362,-9.85933 2.37246,-16.26932 4.13832,-28.33249 0.78578,-5.368 2.11521,-14.548 2.95428,-20.4 0.83907,-5.852 1.5993,-10.6341 1.6894,-10.62689 0.0901,0.007 2.03583,2.32971 4.32383,5.16109 2.288,2.83139 5.42,6.7032 6.96,8.60404 1.54,1.90083 2.8,3.73343 2.8,4.07244 0,0.33902 -1.80703,7.2253 -4.01562,15.30286 -2.20859,8.07755 -5.17019,19.00646 -6.58134,24.28646 -4.82362,18.0482 -22.98955,85.13135 -24.61004,90.88 -0.49614,1.76 -0.91352,3.00864 -0.92753,2.77476 z M 148.336,92.194874 c 0.30642,-0.287389 3.80914,-2.64248 35.024,-23.54873 9.416,-6.306397 18.59765,-12.466755 20.40367,-13.689686 l 3.28367,-2.223511 14.08888,6.026627 14.08889,6.026628 -2.17256,0.740339 c -1.1949,0.407187 -4.62055,1.516131 -7.61255,2.46432 -2.992,0.948189 -10.408,3.303085 -16.48,5.233104 -6.072,1.930016 -20.184,6.412144 -31.36,9.960281 -11.176,3.548138 -22.29105,7.091194 -24.70012,7.873456 -4.57226,1.484688 -5.06542,1.607568 -4.56388,1.137172 z M 147.77356,89.66825 C 148.4261,88.47937 150.976,83.808032 153.44,79.287504 l 4.48,-8.219146 5.44,-2.137513 c 2.992,-1.175635 13.41039,-5.295053 23.15198,-9.154259 20.9069,-8.282436 19.49192,-7.737703 19.08802,-7.34849 -0.176,0.169597 -10.76,7.258979 -23.52,15.754186 -12.76,8.495203 -25.9659,17.291219 -29.34644,19.546697 l -6.14643,4.100877 z m 10.04833,-19.944586 c 0.0901,-0.244016 1.28234,-3.827664 2.64933,-7.963664 1.367,-4.136 2.6482,-7.681082 2.84712,-7.877955 0.23918,-0.236733 5.4009,-0.544496 15.24166,-0.908771 8.184,-0.302948 16.99689,-0.645866 19.5842,-0.762045 2.5873,-0.116176 4.6033,-0.111722 4.48,0.0099 -0.12331,0.121619 -4.8322,2.035869 -10.4642,4.253891 -8.78685,3.46048 -33.34593,13.201021 -34.21099,13.568646 -0.16005,0.06802 -0.21725,-0.07598 -0.12712,-0.32 z m 70.83032,-9.23408 c -2.80928,-1.372973 -5.16266,-2.660941 -5.22973,-2.86215 -0.0671,-0.20121 1.00152,-3.691424 2.37465,-7.756036 1.37313,-4.064608 2.53632,-7.264467 2.58486,-7.110796 2.4726,7.827814 5.99548,20.272323 5.73319,20.252348 -0.19535,-0.01488 -2.65369,-1.150393 -5.46297,-2.523366 z M 215.68,54.907664 C 176.0072,37.860829 175.779,37.76 176.87047,37.76 c 0.19716,0 2.61818,-1.08 5.38006,-2.4 2.76187,-1.32 5.06112,-2.4 5.10944,-2.4 0.0483,0 1.89689,-0.864 4.10792,-1.92 2.21104,-1.056 4.15094,-1.92 4.31088,-1.92 0.15995,0 2.21916,2.192529 4.57602,4.872285 2.35687,2.679757 4.50121,5.102358 4.76521,5.383555 0.54326,0.578656 1.66805,1.841414 5.12,5.748042 1.32,1.493865 2.47603,2.788118 2.56896,2.876118 0.90684,0.858742 7.71404,8.703021 7.62659,8.788486 -0.0635,0.06211 -2.20355,-0.784265 -4.75555,-1.880822 z M 165.74644,49.397568 C 172.29301,42.533795 175.80675,39.04 176.16311,39.04 c 0.21101,0 4.90464,1.987674 10.43028,4.41705 5.52563,2.429376 11.51679,5.051203 13.31367,5.826275 1.79688,0.775075 3.23165,1.444633 3.18837,1.487907 -0.10975,0.109757 -5.97113,0.371955 -13.17543,0.589379 -3.344,0.100922 -7.376,0.245037 -8.96,0.320259 -1.584,0.07522 -6.264,0.230704 -10.4,0.345517 l -7.52,0.208749 z M 212.32,34.699808 c -8.448,-3.409596 -15.504,-6.264518 -15.68,-6.344273 -0.176,-0.07975 4.3521,-0.156377 10.06244,-0.170272 l 10.38245,-0.02526 1.93755,2.033869 c 9.42018,9.888441 10.20524,10.816544 9.08102,10.735667 -0.2329,-0.01676 -7.33546,-2.820134 -15.78346,-6.229728 z"
         style="fill:#3a3a3a;stroke-width:0.31999999" />
      <path
         inkscape:connector-curvature="0"
         id="path22"
         d="m 94.859194,320.28342 c 0.08384,-0.24387 1.375552,-5.98742 2.870476,-12.76342 6.64253,-30.10839 14.6993,-66.48387 15.69916,-70.88 0.60043,-2.64 4.7768,-21.432 9.2808,-41.76 4.50399,-20.328 9.04491,-40.776 10.09092,-45.44 2.19032,-9.76627 7.68439,-34.53842 9.79399,-44.16 1.5447,-7.045152 1.66774,-7.52439 1.87781,-7.314317 0.0755,0.07551 1.87097,10.644117 3.98992,23.485797 2.11895,12.84169 4.42754,26.80452 5.13021,31.02852 1.33771,8.04148 8.04433,48.64649 11.07282,67.04 0.97077,5.896 3.0549,18.47263 4.6314,27.94807 1.57651,9.47545 2.7897,17.35214 2.69598,17.50377 -0.0937,0.15162 -4.94934,3.70299 -10.79028,7.89192 -5.84095,4.18893 -12.01303,8.62424 -13.71574,9.85624 -1.70271,1.232 -8.18777,5.90683 -14.41125,10.38851 -6.22347,4.48167 -12.97141,9.34769 -14.99541,10.81337 -4.56971,3.30915 -21.869395,15.75857 -22.735965,16.36154 -0.54311,0.37792 -0.614752,0.37792 -0.484841,0 z M 211.04,265.06659 c -16.36113,-0.29228 -37.46588,-0.82722 -37.59214,-0.95285 -0.0837,-0.0833 -0.68292,-3.3469 -1.33164,-7.25255 -1.12983,-6.80219 -6.38855,-38.05415 -11.82948,-70.30119 -1.41055,-8.36 -4.41537,-26.216 -6.67738,-39.68 -2.262,-13.464 -5.08308,-30.20638 -6.26908,-37.2053 -1.84299,-10.876086 -2.204,-13.743711 -1.63763,-13.008034 0.0564,0.07333 2.45304,5.461334 5.32573,11.973334 2.8727,6.512 6.44293,14.576 7.93384,17.92 5.05402,11.33578 12.7983,28.77481 15.27627,34.4 1.35677,3.08 3.08585,6.968 3.84239,8.64 0.75654,1.672 5.65374,12.688 10.88265,24.48 5.22892,11.792 12.39009,27.92 15.9137,35.84 6.49936,14.60854 15.20152,34.2298 15.505,34.96 0.12652,0.30443 -0.47272,0.38338 -2.50799,0.33045 -1.47084,-0.0383 -4.54624,-0.10298 -6.83424,-0.14386 z M 224.48037,260.64 c 0.0841,-0.528 1.01161,-6.936 2.06123,-14.24 1.04961,-7.304 3.57533,-24.728 5.61272,-38.72 2.03739,-13.992 4.35411,-29.904 5.14826,-35.36 0.79416,-5.456 1.7961,-12.296 2.22653,-15.2 0.7614,-5.13695 5.56078,-38.23125 6.28812,-43.36 0.19968,-1.408 0.46254,-2.67485 0.58414,-2.81523 0.1216,-0.14038 1.07099,0.79562 2.10976,2.08 1.03876,1.28438 3.84012,4.71123 6.22525,7.61523 2.38512,2.904 4.67692,5.74349 5.09287,6.30998 l 0.75629,1.02998 -1.03574,3.93002 c -0.56967,2.16151 -2.38269,8.82602 -4.02894,14.81002 -1.64625,5.984 -4.21924,15.488 -5.71775,21.12 -1.49851,5.632 -5.96024,22.192 -9.91496,36.8 -3.95472,14.608 -8.94116,33.04 -11.08098,40.96 -2.13982,7.92 -4.02312,14.76 -4.18511,15.2 -0.27458,0.74582 -0.28418,0.73498 -0.14169,-0.16 z M 148.32,92.257923 c 0.176,-0.173949 2.912,-2.042176 6.08,-4.151613 12.5371,-8.347932 49.67324,-33.244364 50.84801,-34.089011 0.68641,-0.493513 1.53885,-0.897299 1.89432,-0.897299 0.51634,0 25.69607,10.58632 27.38844,11.514928 0.28647,0.157187 -1.4048,0.837702 -4.64,1.867005 -37.61592,11.967753 -57.80394,18.385753 -68.13077,21.659545 -6.864,2.17601 -12.768,4.05906 -13.12,4.184551 -0.42273,0.150707 -0.53137,0.120797 -0.32,-0.08811 z m 12.30474,-30.554515 2.73526,-8.056595 2.08,-0.07714 c 1.144,-0.04243 4.024,-0.162483 6.4,-0.2668 4.23934,-0.186122 16.11414,-0.635827 25.92,-0.981603 l 4.96,-0.174903 -6.24,2.518272 c -3.432,1.38505 -8.112,3.25128 -10.4,4.147175 -2.288,0.895894 -9.4643,3.72574 -15.94733,6.28854 -6.48303,2.562804 -11.8899,4.659642 -12.01527,4.659642 -0.12536,0 1.00294,-3.625466 2.50734,-8.056592 z"
         style="fill:#020202;stroke-width:0.31999999" />
    </g>
  </g>
</svg>
